<!-- <?xml version="1.0" encoding="UTF-8" ?>
<!DOCTYPE svg PUBLIC "-//W3C//DTD SVG 1.1//EN" "http://www.w3.org/Graphics/SVG/1.1/DTD/svg11.dtd"> -->
<svg width="100%" height="100%" viewBox="0 0 264 264" version="1.1" xmlns="http://www.w3.org/2000/svg">
<g id="#53a2caff">
<path fill="#53a2ca" opacity="1.00" d=" M 205.73 10.77 C 211.92 6.86 219.70 6.40 226.64 8.30 C 235.88 11.56 243.48 19.70 245.34 29.42 C 246.92 36.91 244.44 44.86 239.71 50.75 C 235.97 55.75 230.23 58.71 224.45 60.70 C 227.25 63.18 230.82 65.72 230.89 69.87 C 231.81 75.61 226.57 80.73 221.01 80.66 C 218.27 80.79 216.02 79.03 213.56 78.16 C 210.42 83.23 208.72 89.17 208.22 95.09 C 207.60 99.33 211.29 102.78 210.51 107.06 C 210.69 109.83 208.55 111.79 207.32 114.02 C 210.87 118.47 214.11 124.04 212.86 129.96 C 212.20 136.35 206.95 141.34 201.03 143.19 C 201.41 145.15 201.93 147.08 202.13 149.06 C 201.53 155.02 194.88 159.63 189.12 157.79 C 185.27 156.20 181.86 153.72 178.22 151.72 C 162.15 142.50 146.13 133.16 130.05 123.96 C 126.24 122.10 123.15 118.43 123.39 113.98 C 122.95 108.54 128.19 105.13 132.89 104.10 C 132.11 98.57 133.08 92.36 137.38 88.44 C 141.89 83.62 148.92 82.77 155.12 83.91 C 156.65 81.55 157.75 78.67 160.42 77.33 C 163.34 75.30 167.29 76.37 170.22 74.36 C 175.99 71.37 179.77 65.94 183.62 60.91 C 180.31 58.78 176.74 56.24 176.12 52.02 C 174.55 47.22 178.55 42.54 182.87 40.98 C 186.20 39.60 189.56 41.65 192.82 42.19 C 192.17 38.48 191.42 34.70 191.85 30.92 C 193.35 22.66 198.23 14.82 205.73 10.77 M 194.08 27.27 C 192.11 33.01 193.71 39.06 194.75 44.81 C 190.74 43.21 186.40 41.22 182.03 42.62 C 177.95 44.19 176.23 49.16 177.74 53.13 C 178.41 56.89 183.15 57.94 184.48 61.03 C 181.85 66.21 177.66 70.61 173.01 74.08 C 169.63 76.72 165.16 76.71 161.33 78.29 C 158.31 79.52 157.34 82.92 155.97 85.56 C 149.22 83.49 141.19 85.01 136.79 90.85 C 133.40 94.85 134.38 100.36 134.35 105.17 C 132.07 105.90 129.65 106.38 127.58 107.65 C 124.67 109.66 123.93 113.71 125.03 116.92 C 125.84 119.83 128.50 121.60 130.92 123.11 C 149.57 133.76 168.14 144.56 186.73 155.31 C 190.86 157.98 197.10 157.02 199.66 152.65 C 201.69 149.57 200.03 145.91 199.44 142.67 C 205.83 140.53 212.12 135.36 211.72 127.98 C 212.40 122.50 208.79 118.21 205.81 114.09 C 207.83 110.82 210.75 107.28 208.77 103.22 C 204.86 94.41 208.58 84.96 212.49 76.89 C 215.33 77.79 218.10 79.00 221.06 79.47 C 225.48 79.40 230.17 75.71 229.70 70.95 C 230.15 66.33 226.05 63.45 222.57 61.37 C 222.56 60.99 222.54 60.22 222.53 59.84 C 228.76 58.10 234.97 55.24 238.92 49.91 C 245.59 41.78 246.21 29.40 240.52 20.59 C 235.78 13.02 227.00 8.13 218.04 8.40 C 207.11 8.70 197.05 16.78 194.08 27.27 Z" />
<path fill="#53a2ca" opacity="1.00" d=" M 23.30 24.07 C 23.45 19.15 27.82 14.91 32.70 14.81 C 34.72 15.12 36.77 15.62 38.55 16.66 C 40.70 18.22 41.90 20.69 43.75 22.55 C 45.49 21.85 47.11 20.86 48.86 20.18 C 55.58 18.05 63.59 25.23 61.14 32.18 C 60.30 35.96 56.85 37.98 54.10 40.26 C 54.14 43.10 56.62 45.26 57.90 47.67 C 64.63 43.78 71.33 39.83 78.04 35.92 C 79.90 34.57 82.45 35.96 82.72 38.14 C 83.28 39.99 81.43 41.18 80.45 42.44 C 77.25 45.34 78.30 50.10 78.31 53.95 C 79.63 62.22 82.70 70.16 86.64 77.53 C 87.83 79.93 90.50 80.88 92.52 82.41 C 94.54 83.82 95.51 86.17 96.76 88.20 C 99.74 86.28 103.37 83.84 107.05 85.29 C 111.05 86.30 114.72 89.73 114.61 94.10 C 115.20 97.04 113.31 99.44 112.13 101.92 C 113.44 104.08 114.96 106.12 116.16 108.35 C 115.54 111.06 115.06 114.00 113.26 116.23 C 111.73 117.89 109.80 119.09 108.10 120.56 C 118.11 136.04 127.70 152.08 140.91 165.13 C 143.90 168.34 147.73 170.52 151.64 172.41 C 154.43 173.70 155.65 176.65 156.91 179.24 C 165.74 175.61 176.77 181.71 178.91 190.90 C 179.89 193.58 179.14 196.40 178.72 199.11 C 182.50 199.66 186.14 201.66 187.99 205.11 C 189.41 209.59 188.16 215.15 183.89 217.64 C 169.13 226.27 154.29 234.80 139.44 243.30 C 137.93 244.14 136.34 244.97 135.45 246.56 C 150.94 246.86 166.46 246.56 181.96 246.71 C 185.57 246.77 189.25 246.22 192.79 247.25 L 190.76 247.84 C 182.54 248.83 174.23 248.10 165.97 248.30 C 154.39 248.01 142.77 248.98 131.24 247.69 C 133.34 245.88 135.53 244.16 137.94 242.77 C 152.76 234.33 167.53 225.81 182.27 217.25 C 186.92 214.90 189.12 208.38 185.89 204.04 C 183.82 201.63 180.52 200.97 177.71 199.81 C 177.81 194.44 178.31 188.08 173.84 184.17 C 169.34 179.34 162.29 179.19 156.23 180.26 C 154.72 177.73 153.43 174.81 150.70 173.36 C 146.78 171.05 142.73 168.82 139.58 165.47 C 128.70 154.38 119.99 141.42 111.70 128.35 C 110.10 125.73 108.05 123.24 107.35 120.19 C 109.52 117.36 113.27 115.57 114.10 111.84 C 115.25 108.20 112.66 105.00 111.00 102.00 C 112.03 99.40 113.45 96.82 113.51 93.96 C 113.33 89.10 108.07 85.41 103.42 86.43 C 100.85 87.02 98.53 88.31 96.16 89.40 C 93.56 83.30 86.33 81.23 83.94 75.06 C 80.05 66.56 76.32 57.45 76.89 47.92 C 77.12 43.91 80.65 41.22 81.49 37.42 C 81.12 37.29 80.38 37.04 80.00 36.91 C 78.36 36.92 77.01 37.91 75.63 38.66 C 69.51 42.29 63.46 46.09 56.99 49.09 C 55.38 46.22 53.50 43.42 52.66 40.20 C 54.74 37.78 57.75 36.18 59.34 33.35 C 60.14 30.89 60.15 28.12 59.32 25.67 C 57.68 22.45 53.64 20.70 50.14 21.48 C 47.67 21.99 45.35 22.99 42.98 23.84 C 40.64 20.67 38.27 16.41 33.79 16.30 C 29.86 15.66 25.90 18.28 24.87 22.10 C 23.54 25.96 25.86 29.68 27.23 33.16 C 24.21 35.56 20.19 37.76 19.67 42.00 C 18.54 46.33 21.83 51.03 26.20 51.65 C 30.03 52.06 33.61 50.39 37.16 49.21 C 38.76 52.16 40.37 55.10 41.94 58.07 C 33.98 63.23 25.22 67.12 17.64 72.88 C 22.41 74.52 27.94 72.66 32.24 75.77 C 40.08 80.75 45.98 88.16 51.16 95.74 C 54.61 100.41 54.32 106.60 57.46 111.44 C 55.19 113.17 52.75 114.75 50.91 116.96 C 47.98 120.54 48.79 126.78 52.94 129.08 C 55.49 130.23 58.33 130.47 61.05 130.98 C 62.60 133.58 63.72 136.96 66.80 138.14 C 70.89 139.93 75.16 137.66 79.05 136.44 C 87.93 152.43 96.32 168.86 101.64 186.43 C 103.22 191.18 102.89 196.22 102.88 201.15 C 102.70 204.19 104.73 206.64 106.21 209.10 C 102.02 213.60 99.02 219.67 100.58 225.96 C 101.53 232.05 107.31 235.22 112.25 237.80 C 111.80 241.39 110.35 245.74 113.17 248.76 C 116.09 252.18 121.00 251.62 125.03 251.74 C 147.55 251.41 170.09 252.08 192.61 251.39 C 192.31 250.48 191.70 248.67 191.40 247.77 L 193.44 247.83 C 193.52 249.30 193.57 250.77 193.60 252.25 C 187.20 254.07 180.50 252.97 173.96 253.26 C 157.63 253.28 141.31 253.24 124.98 253.28 C 120.63 253.00 115.45 253.35 112.39 249.60 C 109.32 246.74 109.56 242.18 111.07 238.59 C 107.24 236.43 103.03 234.27 100.93 230.17 C 96.83 223.33 99.28 214.26 104.90 209.03 C 103.41 206.94 101.29 204.86 101.51 202.08 C 101.64 197.73 102.28 193.30 100.96 189.06 C 96.92 173.80 89.97 159.52 82.71 145.58 C 81.15 143.01 80.01 140.16 78.08 137.83 C 74.82 138.92 71.66 141.49 68.07 139.93 C 64.23 139.10 62.03 135.81 60.49 132.50 C 57.83 131.77 54.94 131.71 52.52 130.23 C 48.40 127.85 46.29 121.98 48.95 117.78 C 50.33 114.64 53.54 113.13 56.10 111.13 C 55.39 109.87 54.49 108.73 53.80 107.46 C 52.51 104.89 53.43 101.71 51.84 99.26 C 48.29 93.27 44.11 87.60 39.15 82.69 C 35.45 79.15 31.20 75.82 26.10 74.68 C 24.08 74.77 22.17 75.79 20.14 75.63 C 19.12 75.04 18.23 74.28 17.30 73.58 C 17.72 72.54 18.08 71.47 18.64 70.49 C 25.53 65.49 33.94 62.65 40.35 56.98 C 38.92 54.82 37.67 52.54 36.05 50.51 C 32.86 51.71 29.56 54.19 25.99 52.99 C 21.23 51.85 17.10 47.03 18.32 41.95 C 19.00 37.69 22.45 34.80 26.10 32.96 C 24.64 30.21 22.81 27.33 23.30 24.07 Z" />
<path fill="#53a2ca" opacity="1.00" d=" M 28.83 22.28 C 30.91 21.73 33.65 19.18 35.46 21.46 C 37.71 23.95 39.10 27.05 40.73 29.94 C 45.45 29.35 49.13 25.98 53.72 24.96 C 54.63 27.00 56.26 29.15 55.50 31.51 C 52.87 34.26 49.30 35.80 46.08 37.73 C 47.18 41.68 49.56 45.02 51.58 48.52 C 54.11 52.37 48.01 53.86 45.31 54.76 C 43.31 50.80 41.13 46.96 38.98 43.09 C 34.53 44.17 30.67 46.73 26.34 48.13 C 25.26 46.45 24.13 44.78 23.44 42.89 C 25.40 39.25 29.74 38.18 32.61 35.47 C 33.08 30.78 28.80 27.06 28.83 22.28 Z" />
<path fill="#53a2ca" opacity="1.00" d=" M 183.55 45.04 C 186.25 45.57 188.91 46.36 191.25 47.85 C 201.47 54.01 211.91 59.81 222.22 65.83 C 224.01 67.10 226.65 68.45 226.39 71.04 C 225.66 73.39 223.79 76.06 221.01 75.81 C 219.57 75.47 218.26 74.77 216.97 74.07 C 206.45 67.90 195.89 61.80 185.30 55.77 C 183.47 54.60 181.14 53.43 180.77 51.04 C 180.88 48.76 182.48 46.95 183.55 45.04 M 183.51 47.49 C 181.56 48.68 182.18 50.95 182.48 52.80 C 194.22 59.62 206.03 66.35 217.74 73.22 C 219.46 74.21 221.98 75.50 223.57 73.60 C 225.04 72.55 224.68 70.58 224.91 69.03 C 213.43 61.60 201.27 55.28 189.56 48.22 C 187.72 47.36 185.15 45.17 183.51 47.49 Z" />
<path fill="#53a2ca" opacity="1.00" d=" M 31.77 69.05 C 45.70 62.03 58.84 53.58 72.44 45.97 C 72.22 58.45 76.49 70.36 81.88 81.42 C 73.35 85.97 65.19 91.19 56.73 95.87 C 50.21 85.98 42.47 76.09 31.47 70.96 C 31.57 70.32 31.67 69.69 31.77 69.05 Z" />
<path fill="#53a2ca" opacity="1.00" d=" M 101.87 61.97 C 101.81 58.91 103.40 56.21 105.04 53.75 C 109.60 57.92 109.70 66.04 104.92 70.05 C 103.41 67.60 101.67 64.99 101.87 61.97 M 104.72 55.31 C 103.08 59.69 102.71 64.59 105.09 68.79 C 107.66 64.64 108.21 59.12 104.72 55.31 Z" />
<path fill="#53a2ca" opacity="1.00" d=" M 115.43 74.30 C 114.72 67.63 117.45 60.71 123.27 57.10 C 125.66 63.41 122.08 70.15 117.54 74.51 C 117.01 74.46 115.96 74.35 115.43 74.30 M 116.42 73.75 C 120.91 70.30 122.61 64.72 122.99 59.29 C 117.70 62.01 116.63 68.37 116.42 73.75 Z" />
<path fill="#53a2ca" opacity="1.00" d=" M 125.16 80.93 C 125.10 74.17 131.64 69.16 137.65 67.46 C 138.66 71.63 135.34 75.01 132.60 77.65 C 130.62 79.66 127.94 80.72 125.16 80.93 M 125.58 79.79 C 130.95 78.82 135.62 74.46 136.39 68.96 C 131.43 70.92 127.66 74.93 125.58 79.79 Z" />
<path fill="#53a2ca" opacity="1.00" d=" M 160.65 87.52 C 159.64 84.58 161.87 81.11 164.95 80.70 C 167.06 81.05 168.95 82.11 170.78 83.16 C 180.89 89.14 191.09 94.96 201.29 100.79 C 203.17 102.03 205.72 103.39 205.80 105.95 C 205.89 108.78 203.16 110.27 201.24 111.78 C 189.73 105.72 178.70 98.81 167.32 92.52 C 164.96 91.08 162.27 89.86 160.65 87.52 M 161.65 86.46 C 162.74 89.08 165.64 90.06 167.86 91.49 C 178.63 97.49 189.12 104.04 200.00 109.81 C 203.29 110.78 204.19 107.34 204.83 104.92 C 202.95 103.15 200.76 101.78 198.51 100.53 C 187.96 94.55 177.54 88.32 166.95 82.42 C 164.20 80.90 161.25 83.62 161.65 86.46 Z" />
<path fill="#53a2ca" opacity="1.00" d=" M 83.63 86.68 C 84.99 86.30 86.65 84.71 87.98 85.90 C 90.19 86.90 90.32 89.51 90.88 91.54 C 83.46 96.36 75.66 100.55 68.08 105.11 C 65.69 106.63 62.97 107.44 60.21 107.93 C 59.48 105.83 58.78 103.72 58.13 101.60 C 66.46 96.34 75.03 91.46 83.63 86.68 Z" />
<path fill="#53a2ca" opacity="1.00" d=" M 92.34 97.31 C 97.06 94.75 101.39 91.35 106.67 89.98 C 107.64 91.66 108.71 93.30 109.44 95.11 C 108.81 96.98 107.10 98.15 105.52 99.17 C 93.86 106.00 82.11 112.66 70.43 119.44 C 65.96 121.86 61.88 125.20 56.91 126.53 C 54.93 125.33 52.91 123.36 53.46 120.80 C 56.22 117.23 60.67 115.67 64.42 113.37 C 73.81 108.16 82.94 102.49 92.34 97.31 Z" />
<path fill="#53a2ca" opacity="1.00" d=" M 73.84 123.69 C 84.78 117.71 95.36 111.08 106.30 105.09 C 107.96 106.71 109.57 108.37 111.15 110.07 C 109.11 112.32 106.81 114.35 104.13 115.81 C 94.50 121.23 84.87 126.66 75.43 132.40 C 73.36 133.52 70.99 135.22 68.54 134.26 C 66.42 133.22 65.83 130.55 66.58 128.46 C 68.66 126.41 71.35 125.15 73.84 123.69 Z" />
<path fill="#53a2ca" opacity="1.00" d=" M 130.58 109.13 C 135.95 109.27 140.20 112.77 144.68 115.28 C 160.55 124.40 176.36 133.64 192.27 142.70 C 194.23 144.01 197.05 145.22 197.13 147.97 C 197.25 151.77 192.80 154.86 189.52 152.33 C 170.65 141.60 151.93 130.56 133.05 119.82 C 131.15 118.58 128.62 117.40 128.22 114.90 C 128.36 112.78 129.73 111.01 130.58 109.13 M 130.93 110.52 C 130.37 112.04 129.66 113.52 129.36 115.13 C 130.21 116.83 131.85 117.84 133.45 118.74 C 152.28 129.55 171.05 140.45 189.87 151.28 C 192.09 152.79 195.67 151.67 195.93 148.78 C 196.63 146.58 194.29 145.31 192.77 144.31 C 175.21 134.17 157.63 124.07 140.09 113.89 C 137.23 112.31 134.44 109.92 130.93 110.52 Z" />
<path fill="#53a2ca" opacity="1.00" d=" M 83.06 134.55 C 89.43 130.14 96.22 126.30 103.21 122.96 C 113.65 141.09 125.60 158.66 140.90 173.07 C 129.59 179.13 118.84 186.20 107.44 192.08 C 105.00 179.31 99.73 167.35 94.28 155.63 C 90.80 148.47 87.29 141.30 83.06 134.55 Z" />
<path fill="#53a2ca" opacity="1.00" d=" M 137.19 181.33 C 140.84 179.07 144.54 176.72 148.83 175.93 C 149.51 177.57 150.43 179.16 150.62 180.95 C 151.02 183.19 148.52 184.03 147.09 185.11 C 137.99 190.31 128.98 195.66 119.85 200.80 C 116.98 202.35 114.35 204.50 111.18 205.38 C 109.81 205.01 108.52 204.41 107.21 203.89 C 107.66 201.74 106.76 198.66 109.21 197.54 C 118.46 192.00 127.84 186.68 137.19 181.33 Z" />
<path fill="#53a2ca" opacity="1.00" d=" M 161.15 183.84 C 168.22 182.54 175.02 190.14 173.58 197.07 C 172.95 201.27 169.02 203.74 165.66 205.72 C 151.69 213.75 137.72 221.79 123.79 229.91 C 121.02 231.38 118.22 233.26 115.00 233.43 C 108.29 232.79 102.79 225.41 104.81 218.81 C 106.54 214.06 111.40 211.83 115.50 209.51 C 126.45 203.60 137.01 196.98 147.90 190.95 C 152.31 188.58 156.31 185.33 161.15 183.84 Z" />
<path fill="#53a2ca" opacity="1.00" d=" M 124.50 235.74 C 142.78 225.25 160.92 214.54 179.29 204.22 C 180.87 205.87 182.42 207.53 183.95 209.22 C 179.83 214.34 173.54 216.73 168.11 220.11 C 156.78 226.43 145.72 233.19 134.38 239.49 C 129.09 242.41 124.15 246.04 118.42 248.09 C 117.24 246.15 115.41 244.35 115.45 241.93 C 117.79 239.02 121.36 237.58 124.50 235.74 Z" />
</g>
<g id="#016093ff">
<path fill="#016093" opacity="1.00" d=" M 194.08 27.27 C 197.05 16.78 207.11 8.70 218.04 8.40 C 227.00 8.13 235.78 13.02 240.52 20.59 C 246.21 29.40 245.59 41.78 238.92 49.91 C 234.97 55.24 228.76 58.10 222.53 59.84 C 222.54 60.22 222.56 60.99 222.57 61.37 C 226.05 63.45 230.15 66.33 229.70 70.95 C 230.17 75.71 225.48 79.40 221.06 79.47 C 218.10 79.00 215.33 77.79 212.49 76.89 C 208.58 84.96 204.86 94.41 208.77 103.22 C 210.75 107.28 207.83 110.82 205.81 114.09 C 208.79 118.21 212.40 122.50 211.72 127.98 C 212.12 135.36 205.83 140.53 199.44 142.67 C 200.03 145.91 201.69 149.57 199.66 152.65 C 197.10 157.02 190.86 157.98 186.73 155.31 C 168.14 144.56 149.57 133.76 130.92 123.11 C 128.50 121.60 125.84 119.83 125.03 116.92 C 123.93 113.71 124.67 109.66 127.58 107.65 C 129.65 106.38 132.07 105.90 134.35 105.17 C 134.38 100.36 133.40 94.85 136.79 90.85 C 141.19 85.01 149.22 83.49 155.97 85.56 C 157.34 82.92 158.31 79.52 161.33 78.29 C 165.16 76.71 169.63 76.72 173.01 74.08 C 177.66 70.61 181.85 66.21 184.48 61.03 C 183.15 57.94 178.41 56.89 177.74 53.13 C 176.23 49.16 177.95 44.19 182.03 42.62 C 186.40 41.22 190.74 43.21 194.75 44.81 C 193.71 39.06 192.11 33.01 194.08 27.27 M 213.11 14.14 C 207.91 15.49 203.29 19.04 200.69 23.75 C 196.21 31.67 197.51 42.52 204.04 48.94 C 212.01 56.98 226.76 56.68 234.26 48.13 C 241.62 40.14 241.20 26.42 233.19 19.02 C 227.99 13.83 220.07 12.56 213.11 14.14 M 183.55 45.04 C 182.48 46.95 180.88 48.76 180.77 51.04 C 181.14 53.43 183.47 54.60 185.30 55.77 C 195.89 61.80 206.45 67.90 216.97 74.07 C 218.26 74.77 219.57 75.47 221.01 75.81 C 223.79 76.06 225.66 73.39 226.39 71.04 C 226.65 68.45 224.01 67.10 222.22 65.83 C 211.91 59.81 201.47 54.01 191.25 47.85 C 188.91 46.36 186.25 45.57 183.55 45.04 M 183.67 70.87 C 181.02 74.25 177.54 76.80 173.99 79.16 C 183.04 84.78 192.41 89.87 201.59 95.26 C 203.03 88.75 204.23 82.08 207.57 76.21 C 201.56 72.18 195.16 68.75 188.86 65.19 C 186.65 66.57 185.37 68.96 183.67 70.87 M 160.65 87.52 C 162.27 89.86 164.96 91.08 167.32 92.52 C 178.70 98.81 189.73 105.72 201.24 111.78 C 203.16 110.27 205.89 108.78 205.80 105.95 C 205.72 103.39 203.17 102.03 201.29 100.79 C 191.09 94.96 180.89 89.14 170.78 83.16 C 168.95 82.11 167.06 81.05 164.95 80.70 C 161.87 81.11 159.64 84.58 160.65 87.52 M 145.17 90.18 C 141.76 91.85 139.39 95.29 138.60 98.95 C 137.89 103.29 140.90 107.29 144.53 109.30 C 159.81 118.18 175.13 126.97 190.42 135.81 C 193.64 137.88 198.06 138.87 201.45 136.63 C 204.93 134.70 206.83 130.81 207.33 126.99 C 207.03 123.09 204.56 119.58 201.12 117.76 C 185.87 109.03 170.60 100.33 155.49 91.37 C 152.43 89.53 148.54 88.69 145.17 90.18 M 130.58 109.13 C 129.73 111.01 128.36 112.78 128.22 114.90 C 128.62 117.40 131.15 118.58 133.05 119.82 C 151.93 130.56 170.65 141.60 189.52 152.33 C 192.80 154.86 197.25 151.77 197.13 147.97 C 197.05 145.22 194.23 144.01 192.27 142.70 C 176.36 133.64 160.55 124.40 144.68 115.28 C 140.20 112.77 135.95 109.27 130.58 109.13 Z" />
<path fill="#016093" opacity="1.00" d=" M 24.87 22.10 C 25.90 18.28 29.86 15.66 33.79 16.30 C 38.27 16.41 40.64 20.67 42.98 23.84 C 45.35 22.99 47.67 21.99 50.14 21.48 C 53.64 20.70 57.68 22.45 59.32 25.67 C 60.15 28.12 60.14 30.89 59.34 33.35 C 57.75 36.18 54.74 37.78 52.66 40.20 C 53.50 43.42 55.38 46.22 56.99 49.09 C 63.46 46.09 69.51 42.29 75.63 38.66 C 77.01 37.91 78.36 36.92 80.00 36.91 C 80.38 37.04 81.12 37.29 81.49 37.42 C 80.65 41.22 77.12 43.91 76.89 47.92 C 76.32 57.45 80.05 66.56 83.94 75.06 C 86.33 81.23 93.56 83.30 96.16 89.40 C 98.53 88.31 100.85 87.02 103.42 86.43 C 108.07 85.41 113.33 89.10 113.51 93.96 C 113.45 96.82 112.03 99.40 111.00 102.00 C 112.66 105.00 115.25 108.20 114.10 111.84 C 113.27 115.57 109.52 117.36 107.35 120.19 C 108.05 123.24 110.10 125.73 111.70 128.35 C 119.99 141.42 128.70 154.38 139.58 165.47 C 142.73 168.82 146.78 171.05 150.70 173.36 C 153.43 174.81 154.72 177.73 156.23 180.26 C 162.29 179.19 169.34 179.34 173.84 184.17 C 178.31 188.08 177.81 194.44 177.71 199.81 C 180.52 200.97 183.82 201.63 185.89 204.04 C 189.12 208.38 186.92 214.90 182.27 217.25 C 167.53 225.81 152.76 234.33 137.94 242.77 C 135.53 244.16 133.34 245.88 131.24 247.69 C 142.77 248.98 154.39 248.01 165.97 248.30 C 174.23 248.10 182.54 248.83 190.76 247.84 L 191.40 247.77 C 191.70 248.67 192.31 250.48 192.61 251.39 C 170.09 252.08 147.55 251.41 125.03 251.74 C 121.00 251.62 116.09 252.18 113.17 248.76 C 110.35 245.74 111.80 241.39 112.25 237.80 C 107.31 235.22 101.53 232.05 100.58 225.96 C 99.02 219.67 102.02 213.60 106.21 209.10 C 104.73 206.64 102.70 204.19 102.88 201.15 C 102.89 196.22 103.22 191.18 101.64 186.43 C 96.32 168.86 87.93 152.43 79.05 136.44 C 75.16 137.66 70.89 139.93 66.80 138.14 C 63.72 136.96 62.60 133.58 61.05 130.98 C 58.33 130.47 55.49 130.23 52.94 129.08 C 48.79 126.78 47.98 120.54 50.91 116.96 C 52.75 114.75 55.19 113.17 57.46 111.44 C 54.32 106.60 54.61 100.41 51.16 95.74 C 45.98 88.16 40.08 80.75 32.24 75.77 C 27.94 72.66 22.41 74.52 17.64 72.88 C 25.22 67.12 33.98 63.23 41.94 58.07 C 40.37 55.10 38.76 52.16 37.16 49.21 C 33.61 50.39 30.03 52.06 26.20 51.65 C 21.83 51.03 18.54 46.33 19.67 42.00 C 20.19 37.76 24.21 35.56 27.23 33.16 C 25.86 29.68 23.54 25.96 24.87 22.10 M 28.83 22.28 C 28.80 27.06 33.08 30.78 32.61 35.47 C 29.74 38.18 25.40 39.25 23.44 42.89 C 24.13 44.78 25.26 46.45 26.34 48.13 C 30.67 46.73 34.53 44.17 38.98 43.09 C 41.13 46.96 43.31 50.80 45.31 54.76 C 48.01 53.86 54.11 52.37 51.58 48.52 C 49.56 45.02 47.18 41.68 46.08 37.73 C 49.30 35.80 52.87 34.26 55.50 31.51 C 56.26 29.15 54.63 27.00 53.72 24.96 C 49.13 25.98 45.45 29.35 40.73 29.94 C 39.10 27.05 37.71 23.95 35.46 21.46 C 33.65 19.18 30.91 21.73 28.83 22.28 M 31.77 69.05 C 31.67 69.69 31.57 70.32 31.47 70.96 C 42.47 76.09 50.21 85.98 56.73 95.87 C 65.19 91.19 73.35 85.97 81.88 81.42 C 76.49 70.36 72.22 58.45 72.44 45.97 C 58.84 53.58 45.70 62.03 31.77 69.05 M 83.63 86.68 C 75.03 91.46 66.46 96.34 58.13 101.60 C 58.78 103.72 59.48 105.83 60.21 107.93 C 62.97 107.44 65.69 106.63 68.08 105.11 C 75.66 100.55 83.46 96.36 90.88 91.54 C 90.32 89.51 90.19 86.90 87.98 85.90 C 86.65 84.71 84.99 86.30 83.63 86.68 M 92.34 97.31 C 82.94 102.49 73.81 108.16 64.42 113.37 C 60.67 115.67 56.22 117.23 53.46 120.80 C 52.91 123.36 54.93 125.33 56.91 126.53 C 61.88 125.20 65.96 121.86 70.43 119.44 C 82.11 112.66 93.86 106.00 105.52 99.17 C 107.10 98.15 108.81 96.98 109.44 95.11 C 108.71 93.30 107.64 91.66 106.67 89.98 C 101.39 91.35 97.06 94.75 92.34 97.31 M 73.84 123.69 C 71.35 125.15 68.66 126.41 66.58 128.46 C 65.83 130.55 66.42 133.22 68.54 134.26 C 70.99 135.22 73.36 133.52 75.43 132.40 C 84.87 126.66 94.50 121.23 104.13 115.81 C 106.81 114.35 109.11 112.32 111.15 110.07 C 109.57 108.37 107.96 106.71 106.30 105.09 C 95.36 111.08 84.78 117.71 73.84 123.69 M 83.06 134.55 C 87.29 141.30 90.80 148.47 94.28 155.63 C 99.73 167.35 105.00 179.31 107.44 192.08 C 118.84 186.20 129.59 179.13 140.90 173.07 C 125.60 158.66 113.65 141.09 103.21 122.96 C 96.22 126.30 89.43 130.14 83.06 134.55 M 137.19 181.33 C 127.84 186.68 118.46 192.00 109.21 197.54 C 106.76 198.66 107.66 201.74 107.21 203.89 C 108.52 204.41 109.81 205.01 111.18 205.38 C 114.35 204.50 116.98 202.35 119.85 200.80 C 128.98 195.66 137.99 190.31 147.09 185.11 C 148.52 184.03 151.02 183.19 150.62 180.95 C 150.43 179.16 149.51 177.57 148.83 175.93 C 144.54 176.72 140.84 179.07 137.19 181.33 M 161.15 183.84 C 156.31 185.33 152.31 188.58 147.90 190.95 C 137.01 196.98 126.45 203.60 115.50 209.51 C 111.40 211.83 106.54 214.06 104.81 218.81 C 102.79 225.41 108.29 232.79 115.00 233.43 C 118.22 233.26 121.02 231.38 123.79 229.91 C 137.72 221.79 151.69 213.75 165.66 205.72 C 169.02 203.74 172.95 201.27 173.58 197.07 C 175.02 190.14 168.22 182.54 161.15 183.84 M 124.50 235.74 C 121.36 237.58 117.79 239.02 115.45 241.93 C 115.41 244.35 117.24 246.15 118.42 248.09 C 124.15 246.04 129.09 242.41 134.38 239.49 C 145.72 233.19 156.78 226.43 168.11 220.11 C 173.54 216.73 179.83 214.34 183.95 209.22 C 182.42 207.53 180.87 205.87 179.29 204.22 C 160.92 214.54 142.78 225.25 124.50 235.74 Z" />
<path fill="#016093" opacity="1.00" d=" M 104.72 55.31 C 108.21 59.12 107.66 64.64 105.09 68.79 C 102.71 64.59 103.08 59.69 104.72 55.31 Z" />
<path fill="#016093" opacity="1.00" d=" M 116.42 73.75 C 116.63 68.37 117.70 62.01 122.99 59.29 C 122.61 64.72 120.91 70.30 116.42 73.75 Z" />
<path fill="#016093" opacity="1.00" d=" M 125.58 79.79 C 127.66 74.93 131.43 70.92 136.39 68.96 C 135.62 74.46 130.95 78.82 125.58 79.79 Z" />
</g>
</svg>
