<?xml version="1.0" encoding="UTF-8" ?>
<!DOCTYPE svg PUBLIC "-//W3C//DTD SVG 1.1//EN" "http://www.w3.org/Graphics/SVG/1.1/DTD/svg11.dtd">
<svg width="100%" height="100%" viewBox="0 0 608 608" version="1.1" xmlns="http://www.w3.org/2000/svg">
<g id="#f9ba47ff">
<path fill="#f9ba47" opacity="1.00" d=" M 277.09 0.00 L 332.04 0.00 C 334.27 2.03 337.22 2.80 339.91 3.99 C 360.37 12.72 377.28 29.43 386.27 49.78 C 389.68 56.98 391.46 64.79 393.19 72.53 C 394.17 83.74 394.77 95.37 391.52 106.28 C 390.38 113.59 387.18 120.35 383.99 126.95 C 374.91 145.09 359.11 159.45 340.76 167.88 C 332.56 171.45 323.78 173.32 315.09 175.26 C 314.65 183.16 315.06 191.08 315.03 199.00 C 314.99 230.66 315.09 262.33 314.98 294.00 C 315.09 299.96 314.29 306.02 315.57 311.91 C 323.59 306.91 331.25 301.32 339.25 296.27 C 343.77 293.08 348.75 290.48 352.94 286.86 C 353.92 284.05 353.58 281.00 354.09 278.10 C 356.67 264.02 362.40 250.46 371.14 239.08 C 384.64 221.32 404.84 208.47 426.94 204.82 C 435.29 202.93 443.95 203.17 452.45 203.56 C 452.81 205.01 453.30 206.44 453.41 207.94 C 454.23 222.99 451.16 238.17 444.86 251.85 C 435.89 270.72 420.21 286.31 401.23 295.09 C 394.18 298.42 386.66 300.52 379.06 302.17 C 374.15 303.14 368.64 302.21 364.32 305.26 C 349.41 315.00 334.68 325.04 319.75 334.76 C 318.05 336.02 315.92 337.14 315.13 339.22 C 314.60 343.12 315.00 347.08 314.92 351.01 C 315.05 357.51 314.55 364.03 315.29 370.51 C 366.83 370.84 418.39 370.48 469.92 370.68 C 472.85 370.62 473.05 373.74 473.04 375.94 C 473.02 394.29 473.02 412.65 473.02 431.00 C 472.92 437.54 473.37 444.12 472.54 450.64 C 462.67 452.18 452.61 450.68 442.67 451.45 C 440.87 459.59 440.10 467.90 439.40 476.19 C 437.36 487.88 436.47 499.71 434.72 511.44 C 432.95 503.63 436.06 495.94 436.40 488.16 C 436.81 479.45 439.40 470.99 439.50 462.25 C 439.55 458.27 440.45 454.37 441.56 450.57 C 451.54 449.66 461.64 451.27 471.56 449.69 C 471.72 423.88 471.70 398.07 471.57 372.27 C 469.74 371.98 467.91 371.69 466.06 371.63 C 415.53 371.58 364.98 371.81 314.45 371.53 C 312.90 363.44 313.95 355.18 313.60 347.01 C 313.67 342.69 312.90 336.97 317.39 334.51 C 332.87 324.33 348.32 314.08 363.70 303.74 C 367.79 300.67 373.11 301.93 377.79 300.86 C 387.24 298.74 396.62 295.91 405.22 291.38 C 423.02 282.05 437.37 266.35 445.01 247.75 C 449.58 237.43 451.37 226.20 452.42 215.05 C 452.65 211.75 452.40 208.43 451.82 205.18 C 445.83 203.92 439.71 204.73 433.70 205.41 C 414.41 207.03 396.20 216.04 381.99 228.99 C 366.34 243.81 356.29 264.42 354.38 285.90 C 354.32 288.13 352.24 289.36 350.66 290.53 C 341.27 296.83 331.66 302.80 322.43 309.34 C 320.00 311.13 317.21 312.36 314.29 313.07 C 313.22 307.10 313.72 301.03 313.65 295.00 C 313.61 254.93 313.73 214.86 313.60 174.80 C 307.48 174.33 301.32 174.27 295.20 174.84 C 294.30 180.85 294.68 186.95 294.65 193.00 C 294.64 211.34 294.65 229.67 294.64 248.00 C 294.60 253.39 295.06 258.83 294.09 264.17 C 290.11 262.62 286.53 260.25 283.05 257.81 C 274.57 251.96 265.72 246.65 257.40 240.57 C 253.97 238.31 253.61 234.01 253.02 230.32 C 250.35 211.96 241.38 194.75 228.50 181.50 C 210.91 163.87 185.76 154.53 160.96 155.41 C 159.45 155.53 157.41 155.28 156.72 157.04 C 155.73 164.82 157.11 172.62 158.28 180.30 C 160.26 194.86 167.51 208.14 176.19 219.76 C 188.35 234.37 204.99 245.60 223.62 249.93 C 228.67 251.25 233.80 252.43 239.05 252.57 C 243.15 252.55 246.37 255.35 249.58 257.51 C 260.29 264.77 271.21 271.73 281.84 279.12 C 285.91 282.01 290.77 283.91 294.20 287.62 C 294.86 290.01 294.66 292.53 294.70 294.99 C 294.46 320.49 294.91 346.00 294.48 371.50 C 242.20 371.96 189.90 371.34 137.62 371.80 C 137.26 375.52 137.22 379.27 137.26 383.01 C 137.47 405.18 137.07 427.36 137.45 449.53 C 147.17 449.90 156.90 449.50 166.63 449.66 C 168.65 453.90 169.34 458.60 169.44 463.26 C 169.50 470.90 171.74 478.28 172.26 485.87 C 172.61 492.96 174.46 499.88 174.74 506.98 C 175.22 514.39 177.28 521.59 177.59 529.02 C 178.05 536.79 180.10 544.38 180.48 552.16 C 180.71 556.90 181.75 561.55 182.37 566.25 C 183.73 580.19 186.23 593.99 187.05 608.00 L 185.84 608.00 C 185.20 595.58 182.59 583.38 181.63 571.00 C 179.78 560.56 179.36 549.94 177.45 539.51 C 176.53 527.85 174.28 516.37 173.33 504.72 C 171.49 495.09 171.24 485.27 169.45 475.64 C 168.07 467.54 168.54 459.09 165.81 451.26 C 155.99 450.89 146.06 452.07 136.30 450.68 C 135.97 448.82 135.65 446.95 135.67 445.06 C 135.76 421.70 135.71 398.35 135.69 374.99 C 135.62 373.01 136.56 370.29 139.03 370.66 C 190.56 370.54 242.10 370.77 293.63 370.56 C 294.14 344.09 293.63 317.58 293.89 291.10 C 293.97 288.05 290.70 286.82 288.69 285.22 C 273.85 275.45 259.01 265.65 244.21 255.81 C 240.98 253.35 236.78 253.82 232.99 253.48 C 218.78 251.37 205.01 246.06 193.32 237.65 C 174.42 224.14 160.49 203.26 156.84 180.17 C 155.16 172.37 154.97 164.32 155.47 156.39 C 155.69 154.20 158.29 154.22 159.95 154.15 C 167.89 154.18 175.96 153.94 183.71 156.00 C 221.31 162.88 252.03 196.71 255.06 234.85 C 255.13 237.81 258.12 239.25 260.18 240.83 C 271.27 248.08 282.22 255.55 293.35 262.75 C 293.87 260.21 293.96 257.61 293.88 255.03 C 293.60 228.35 294.22 201.66 293.56 174.99 C 288.71 174.37 284.04 172.93 279.29 171.82 C 262.04 167.04 246.70 156.42 235.19 142.81 C 227.42 133.39 221.80 122.28 218.18 110.65 C 217.17 104.77 215.05 99.07 215.01 93.06 C 214.92 86.32 214.61 79.52 215.60 72.83 C 217.28 65.18 218.94 57.45 222.31 50.33 C 231.03 30.08 247.72 13.54 267.75 4.44 C 270.89 3.01 274.27 2.07 277.09 0.00 M 294.75 26.71 C 294.58 29.98 294.59 33.33 293.24 36.38 C 279.98 36.59 268.49 46.88 264.95 59.33 C 264.32 63.47 264.44 67.72 264.79 71.88 C 267.45 84.11 278.03 93.97 290.29 96.17 C 298.20 96.60 306.15 96.07 314.08 96.33 C 317.12 96.23 319.77 98.16 321.68 100.37 C 326.63 105.24 321.84 115.16 315.06 114.73 C 309.04 114.84 303.02 114.68 297.00 114.78 C 294.29 114.65 291.15 115.16 288.97 113.16 C 286.77 111.15 285.69 108.28 284.32 105.71 C 277.77 105.45 271.20 105.44 264.66 105.73 C 263.73 118.02 272.54 129.45 283.67 133.87 C 286.78 134.98 290.11 135.36 293.17 136.63 C 295.39 138.87 294.24 142.44 294.76 145.30 C 301.23 145.47 307.72 145.55 314.19 145.25 C 314.40 142.42 314.42 139.58 314.62 136.74 C 319.45 135.22 324.66 134.57 329.08 131.93 C 335.66 128.10 340.75 121.80 343.29 114.64 C 346.11 105.07 343.98 94.14 337.30 86.64 C 332.62 80.64 325.47 76.86 318.01 75.76 C 309.99 75.41 301.95 75.90 293.94 75.61 C 290.90 75.64 288.51 73.34 286.77 71.11 C 282.54 65.93 287.39 57.08 293.92 57.34 C 301.29 57.29 308.68 57.18 316.05 57.40 C 320.78 57.64 322.38 62.94 324.63 66.29 C 331.17 66.48 337.73 66.57 344.26 66.21 C 344.93 60.50 342.41 55.07 339.60 50.27 C 336.48 44.95 331.49 40.90 325.87 38.48 C 322.59 37.05 318.71 37.35 315.64 35.43 C 313.65 33.04 314.66 29.62 314.21 26.75 C 307.73 26.51 301.23 26.58 294.75 26.71 Z" />
<path fill="#f9ba47" opacity="1.00" d=" M 491.08 11.02 C 490.89 8.21 493.27 6.41 495.95 6.69 C 501.41 6.93 507.07 5.91 512.36 7.66 C 513.66 16.93 511.54 26.47 513.42 35.65 C 519.94 35.80 526.47 35.66 533.00 35.66 C 535.73 35.70 538.74 35.22 541.14 36.87 C 542.84 38.87 542.33 41.58 542.40 44.00 C 542.28 47.66 542.53 51.33 542.29 54.98 C 541.94 57.03 539.85 57.72 538.03 57.61 C 530.71 57.63 523.39 57.54 516.07 57.54 C 514.72 57.39 513.64 58.18 512.56 58.82 C 512.75 67.16 512.82 75.52 512.60 83.86 C 512.90 86.85 509.24 87.26 507.06 87.20 C 502.76 87.01 498.38 87.60 494.13 86.88 C 491.36 86.53 491.28 83.23 491.08 81.08 C 491.59 73.68 491.18 66.25 491.45 58.83 C 490.32 58.29 489.23 57.45 487.93 57.54 C 480.94 57.56 473.95 57.59 466.97 57.63 C 465.45 57.56 463.71 57.68 462.53 56.55 C 461.26 54.24 461.75 51.52 461.66 49.00 C 461.80 44.87 461.10 40.60 462.60 36.63 C 471.37 34.41 480.65 36.44 489.61 35.59 C 491.06 35.22 491.40 33.36 491.38 32.06 C 491.32 25.04 491.45 18.02 491.08 11.02 Z" />
<path fill="#f9ba47" opacity="1.00" d=" M 106.04 58.99 C 106.06 57.41 107.32 55.89 108.99 56.00 C 113.99 55.90 119.00 55.97 124.00 55.96 C 125.76 55.83 127.38 57.21 127.37 59.01 C 127.54 64.25 127.14 69.49 127.46 74.73 C 133.06 76.23 138.92 74.65 144.60 75.52 C 146.24 75.67 147.40 77.38 147.35 78.94 C 147.41 83.30 147.40 87.67 147.35 92.04 C 147.52 93.80 146.40 95.43 144.84 96.16 C 139.14 97.38 133.09 95.36 127.50 97.21 C 127.12 102.46 127.62 107.72 127.27 112.96 C 127.16 115.17 125.18 116.61 123.04 116.42 C 118.37 116.34 113.68 116.62 109.01 116.30 C 107.29 116.22 106.13 114.54 106.06 112.93 C 105.75 107.43 106.76 101.84 105.54 96.41 C 100.36 96.35 95.18 96.67 90.00 96.49 C 88.03 96.70 86.28 94.97 86.40 93.00 C 86.26 89.33 86.50 85.66 86.37 81.98 C 86.42 79.69 85.79 76.63 88.47 75.58 C 94.22 74.74 100.08 75.84 105.85 75.18 C 106.39 69.79 105.88 64.39 106.04 58.99 Z" />
<path fill="#f9ba47" opacity="1.00" d=" M 560.75 77.15 C 561.56 75.00 564.09 75.26 565.95 75.26 C 570.24 75.45 574.54 75.14 578.83 75.34 C 580.38 75.29 581.64 76.65 581.65 78.17 C 582.05 83.69 581.20 89.26 581.93 94.77 C 587.27 95.15 592.64 94.59 597.98 94.93 C 600.06 95.08 601.50 96.89 601.36 98.94 C 601.31 103.31 601.27 107.68 601.36 112.05 C 601.55 114.14 600.17 116.21 597.97 116.31 C 592.72 116.61 587.46 116.24 582.21 116.40 C 580.86 122.36 582.42 128.54 581.40 134.53 C 580.36 137.14 577.21 136.35 575.02 136.47 C 570.73 136.24 566.41 136.79 562.15 136.19 C 559.94 134.10 560.77 130.71 560.47 127.98 C 560.16 124.13 561.30 120.10 559.81 116.41 C 553.72 115.95 547.41 117.35 541.50 115.54 C 540.42 109.01 540.23 102.12 541.60 95.63 C 547.56 93.95 553.82 95.35 559.91 94.79 C 561.58 89.08 559.58 82.95 560.75 77.15 Z" />
<path fill="#f9ba47" opacity="1.00" d=" M 36.95 118.93 C 36.82 116.65 38.65 114.62 40.95 114.62 C 45.31 114.52 49.68 114.57 54.04 114.60 C 56.41 114.46 58.82 116.47 58.50 118.96 C 58.60 126.56 58.34 134.17 58.52 141.77 C 58.32 143.57 60.44 144.34 61.90 144.30 C 68.62 143.79 75.38 143.96 82.12 144.01 C 83.87 144.25 86.06 144.14 87.22 145.76 C 88.63 148.27 88.09 151.26 88.20 154.01 C 88.09 157.49 88.62 161.12 87.32 164.46 C 86.22 165.64 84.52 165.53 83.05 165.62 C 76.01 165.66 68.96 165.60 61.92 165.58 C 60.35 165.40 58.42 166.49 58.47 168.23 C 58.43 175.50 58.54 182.78 58.52 190.05 C 58.54 191.59 57.92 193.03 57.49 194.48 C 50.98 195.55 44.11 195.70 37.64 194.35 C 35.85 185.13 37.56 175.65 36.66 166.35 C 27.76 164.48 18.46 166.47 9.46 165.37 C 6.75 163.97 7.34 160.55 7.25 158.04 C 7.43 154.17 6.93 150.25 7.61 146.42 C 9.02 143.76 12.39 144.05 14.95 143.95 C 20.67 144.06 26.39 143.76 32.10 144.19 C 33.64 144.36 35.14 143.84 36.63 143.55 C 37.24 135.36 36.58 127.13 36.95 118.93 Z" />
<path fill="#f9ba47" opacity="1.00" d=" M 501.11 137.15 C 501.20 135.19 503.32 134.59 504.96 134.65 C 509.31 134.59 513.67 134.64 518.03 134.61 C 519.75 134.54 522.06 134.98 522.18 137.10 C 522.73 142.57 522.02 148.08 522.42 153.56 C 527.81 154.92 533.40 153.72 538.87 154.24 C 540.21 154.34 541.25 155.31 542.38 155.95 C 542.36 161.30 542.41 166.66 542.43 172.01 C 542.50 173.53 541.25 174.78 539.86 175.15 C 534.09 176.22 528.08 174.43 522.40 176.11 C 522.19 181.08 522.52 186.07 522.28 191.04 C 522.27 192.96 521.15 195.17 518.99 195.17 C 514.30 195.27 509.61 195.17 504.92 195.19 C 503.72 195.14 501.95 194.89 501.59 193.53 C 499.86 187.70 502.17 181.19 500.37 175.51 C 494.65 174.94 488.84 176.01 483.13 175.19 C 481.02 173.84 481.58 171.14 481.49 169.03 C 481.63 165.02 481.41 161.01 481.61 157.01 C 481.63 155.65 482.77 154.32 484.18 154.24 C 489.71 153.81 495.27 154.60 500.80 153.98 C 501.36 148.38 500.68 142.74 501.11 137.15 Z" />
<path fill="#f9ba47" opacity="1.00" d=" M 156.49 391.51 C 158.64 391.12 160.78 390.67 162.97 390.65 C 253.98 390.71 344.99 390.66 436.00 390.68 C 441.51 390.77 447.10 390.16 452.50 391.52 C 452.74 404.81 452.76 418.11 452.48 431.40 C 355.30 431.43 258.11 431.40 160.94 431.41 C 159.42 431.34 157.95 430.90 156.48 430.58 C 155.96 428.08 155.52 425.56 155.60 423.00 C 155.67 415.00 155.67 407.00 155.60 398.99 C 155.52 396.46 155.95 393.96 156.49 391.51 M 157.17 394.20 C 157.53 405.70 157.15 417.20 157.36 428.70 C 159.87 430.66 163.11 429.62 166.01 429.76 C 257.67 429.75 349.33 429.76 440.99 429.76 C 444.44 429.75 447.91 430.03 451.34 429.52 C 452.02 418.71 451.32 407.84 451.69 397.01 C 451.86 395.50 451.51 394.02 451.02 392.61 C 353.73 392.79 256.41 392.71 159.12 392.65 C 158.63 393.04 157.66 393.81 157.17 394.20 Z" />
<path fill="#f9ba47" opacity="1.00" d=" M 186.76 449.81 C 244.17 449.45 301.59 449.76 359.00 449.66 C 380.07 449.77 401.15 449.44 422.22 449.82 C 422.57 453.09 422.38 456.39 421.29 459.52 C 419.37 465.42 419.92 471.70 418.69 477.73 C 417.15 485.32 417.35 493.15 415.66 500.72 C 414.11 506.92 414.85 513.37 413.48 519.60 C 411.72 528.30 411.89 537.26 409.86 545.92 C 409.11 552.79 408.81 559.74 407.49 566.55 C 405.96 574.03 406.71 581.87 404.17 589.17 C 338.14 589.44 272.09 589.21 206.05 589.28 C 203.91 589.69 203.32 587.25 202.95 585.69 C 202.26 581.83 201.99 577.90 201.74 574.00 C 201.60 567.91 199.38 562.08 199.52 555.97 C 199.51 547.85 196.20 540.14 196.64 532.00 C 196.86 525.21 194.66 518.67 194.48 511.91 C 194.30 504.59 192.16 497.51 191.62 490.22 C 191.29 482.74 189.51 475.44 188.93 467.99 C 188.63 461.85 185.83 456.01 186.76 449.81 M 188.59 451.77 C 188.81 457.19 189.89 462.53 190.36 467.93 C 192.11 477.56 192.35 487.37 194.18 496.99 C 195.31 508.96 197.33 520.81 198.40 532.80 C 200.31 542.70 200.51 552.84 202.43 562.74 C 203.11 570.26 203.85 577.83 205.27 585.23 C 205.21 585.82 205.09 587.00 205.04 587.59 C 210.88 589.18 217.02 588.09 223.00 588.39 C 281.68 588.41 340.36 588.36 399.04 588.41 C 400.27 588.53 401.37 588.21 402.34 587.46 L 403.19 587.43 C 405.65 577.65 405.30 567.45 407.41 557.60 C 408.27 553.42 408.02 549.12 408.62 544.90 C 409.45 538.92 410.84 533.00 411.11 526.95 C 411.34 519.99 413.44 513.25 413.65 506.28 C 413.91 499.22 415.98 492.39 416.34 485.35 C 416.59 480.86 417.14 476.40 418.02 472.00 C 419.45 465.66 418.83 459.06 420.61 452.77 C 419.77 452.03 418.83 451.55 417.80 451.33 C 345.21 451.36 272.60 451.33 200.00 451.35 C 196.20 451.38 192.35 451.03 188.59 451.77 Z" />
<path fill="#f9ba47" opacity="1.00" d=" M 428.96 545.85 C 431.08 534.53 431.33 522.97 433.61 511.69 C 433.72 514.18 433.83 516.68 433.89 519.18 C 433.21 524.82 431.98 530.40 431.70 536.09 C 431.18 543.74 429.17 551.21 428.79 558.89 C 428.56 564.52 427.14 570.00 426.61 575.61 C 425.81 586.46 423.47 597.12 422.92 608.00 L 421.51 608.00 C 422.62 598.31 423.46 588.59 425.11 578.97 C 425.91 567.87 428.13 556.94 428.96 545.85 Z" />
</g>
<g id="#323232ff">
<path fill="#323232" opacity="1.00" d=" M 294.75 26.71 C 301.23 26.58 307.73 26.51 314.21 26.75 C 314.66 29.62 313.65 33.04 315.64 35.43 C 318.71 37.35 322.59 37.05 325.87 38.48 C 331.49 40.90 336.48 44.95 339.60 50.27 C 342.41 55.07 344.93 60.50 344.26 66.21 C 337.73 66.57 331.17 66.48 324.63 66.29 C 322.38 62.94 320.78 57.64 316.05 57.40 C 308.68 57.18 301.29 57.29 293.92 57.34 C 287.39 57.08 282.54 65.93 286.77 71.11 C 288.51 73.34 290.90 75.64 293.94 75.61 C 301.95 75.90 309.99 75.41 318.01 75.76 C 325.47 76.86 332.62 80.64 337.30 86.64 C 343.98 94.14 346.11 105.07 343.29 114.64 C 340.75 121.80 335.66 128.10 329.08 131.93 C 324.66 134.57 319.45 135.22 314.62 136.74 C 314.42 139.58 314.40 142.42 314.19 145.25 C 307.72 145.55 301.23 145.47 294.76 145.30 C 294.24 142.44 295.39 138.87 293.17 136.63 C 290.11 135.36 286.78 134.98 283.67 133.87 C 272.54 129.45 263.73 118.02 264.66 105.73 C 271.20 105.44 277.77 105.45 284.32 105.71 C 285.69 108.28 286.77 111.15 288.97 113.16 C 291.15 115.16 294.29 114.65 297.00 114.78 C 303.02 114.68 309.04 114.84 315.06 114.73 C 321.84 115.16 326.63 105.24 321.68 100.37 C 319.77 98.16 317.12 96.23 314.08 96.33 C 306.15 96.07 298.20 96.60 290.29 96.17 C 278.03 93.97 267.45 84.11 264.79 71.88 C 264.44 67.72 264.32 63.47 264.95 59.33 C 268.49 46.88 279.98 36.59 293.24 36.38 C 294.59 33.33 294.58 29.98 294.75 26.71 Z" />
<path fill="#323232" opacity="1.00" d=" M 156.72 157.04 C 157.41 155.28 159.45 155.53 160.96 155.41 C 185.76 154.53 210.91 163.87 228.50 181.50 C 241.38 194.75 250.35 211.96 253.02 230.32 C 253.61 234.01 253.97 238.31 257.40 240.57 C 265.72 246.65 274.57 251.96 283.05 257.81 C 286.53 260.25 290.11 262.62 294.09 264.17 C 295.06 258.83 294.60 253.39 294.64 248.00 C 294.65 229.67 294.64 211.34 294.65 193.00 C 294.68 186.95 294.30 180.85 295.20 174.84 C 301.32 174.27 307.48 174.33 313.60 174.80 C 313.73 214.86 313.61 254.93 313.65 295.00 C 313.72 301.03 313.22 307.10 314.29 313.07 C 317.21 312.36 320.00 311.13 322.43 309.34 C 331.66 302.80 341.27 296.83 350.66 290.53 C 352.24 289.36 354.32 288.13 354.38 285.90 C 356.29 264.42 366.34 243.81 381.99 228.99 C 396.20 216.04 414.41 207.03 433.70 205.41 C 439.71 204.73 445.83 203.92 451.82 205.18 C 452.40 208.43 452.65 211.75 452.42 215.05 C 451.37 226.20 449.58 237.43 445.01 247.75 C 437.37 266.35 423.02 282.05 405.22 291.38 C 396.62 295.91 387.24 298.74 377.79 300.86 C 373.11 301.93 367.79 300.67 363.70 303.74 C 348.32 314.08 332.87 324.33 317.39 334.51 C 312.90 336.97 313.67 342.69 313.60 347.01 C 313.95 355.18 312.90 363.44 314.45 371.53 C 364.98 371.81 415.53 371.58 466.06 371.63 C 467.91 371.69 469.74 371.98 471.57 372.27 C 471.70 398.07 471.72 423.88 471.56 449.69 C 461.64 451.27 451.54 449.66 441.56 450.57 C 440.45 454.37 439.55 458.27 439.50 462.25 C 439.40 470.99 436.81 479.45 436.40 488.16 C 436.06 495.94 432.95 503.63 434.72 511.44 C 434.58 514.03 434.25 516.61 433.89 519.18 C 433.83 516.68 433.72 514.18 433.61 511.69 C 431.33 522.97 431.08 534.53 428.96 545.85 C 428.13 556.94 425.91 567.87 425.11 578.97 C 423.46 588.59 422.62 598.31 421.51 608.00 L 187.05 608.00 C 186.23 593.99 183.73 580.19 182.37 566.25 C 181.75 561.55 180.71 556.90 180.48 552.16 C 180.10 544.38 178.05 536.79 177.59 529.02 C 177.28 521.59 175.22 514.39 174.74 506.98 C 174.46 499.88 172.61 492.96 172.26 485.87 C 171.74 478.28 169.50 470.90 169.44 463.26 C 169.34 458.60 168.65 453.90 166.63 449.66 C 156.90 449.50 147.17 449.90 137.45 449.53 C 137.07 427.36 137.47 405.18 137.26 383.01 C 137.22 379.27 137.26 375.52 137.62 371.80 C 189.90 371.34 242.20 371.96 294.48 371.50 C 294.91 346.00 294.46 320.49 294.70 294.99 C 294.66 292.53 294.86 290.01 294.20 287.62 C 290.77 283.91 285.91 282.01 281.84 279.12 C 271.21 271.73 260.29 264.77 249.58 257.51 C 246.37 255.35 243.15 252.55 239.05 252.57 C 233.80 252.43 228.67 251.25 223.62 249.93 C 204.99 245.60 188.35 234.37 176.19 219.76 C 167.51 208.14 160.26 194.86 158.28 180.30 C 157.11 172.62 155.73 164.82 156.72 157.04 M 178.02 178.13 C 179.29 183.47 181.13 188.69 183.43 193.67 C 190.07 208.08 202.11 219.82 216.43 226.55 C 221.70 228.74 227.20 231.00 233.01 230.90 C 228.63 205.03 207.50 183.00 181.90 177.39 C 180.53 177.00 179.22 177.52 178.02 178.13 M 415.83 230.17 C 397.84 237.85 383.29 253.51 377.50 272.26 C 376.77 275.02 375.43 277.93 376.61 280.77 C 382.33 279.26 388.15 277.86 393.49 275.25 C 401.85 271.21 409.16 265.23 415.40 258.40 C 422.26 250.59 426.99 241.07 429.91 231.13 C 430.32 229.60 430.45 228.01 430.56 226.44 C 425.39 226.14 420.62 228.59 415.83 230.17 M 156.49 391.51 C 155.95 393.96 155.52 396.46 155.60 398.99 C 155.67 407.00 155.67 415.00 155.60 423.00 C 155.52 425.56 155.96 428.08 156.48 430.58 C 157.95 430.90 159.42 431.34 160.94 431.41 C 258.11 431.40 355.30 431.43 452.48 431.40 C 452.76 418.11 452.74 404.81 452.50 391.52 C 447.10 390.16 441.51 390.77 436.00 390.68 C 344.99 390.66 253.98 390.71 162.97 390.65 C 160.78 390.67 158.64 391.12 156.49 391.51 M 186.76 449.81 C 185.83 456.01 188.63 461.85 188.93 467.99 C 189.51 475.44 191.29 482.74 191.62 490.22 C 192.16 497.51 194.30 504.59 194.48 511.91 C 194.66 518.67 196.86 525.21 196.64 532.00 C 196.20 540.14 199.51 547.85 199.52 555.97 C 199.38 562.08 201.60 567.91 201.74 574.00 C 201.99 577.90 202.26 581.83 202.95 585.69 C 203.32 587.25 203.91 589.69 206.05 589.28 C 272.09 589.21 338.14 589.44 404.17 589.17 C 406.71 581.87 405.96 574.03 407.49 566.55 C 408.81 559.74 409.11 552.79 409.86 545.92 C 411.89 537.26 411.72 528.30 413.48 519.60 C 414.85 513.37 414.11 506.92 415.66 500.72 C 417.35 493.15 417.15 485.32 418.69 477.73 C 419.92 471.70 419.37 465.42 421.29 459.52 C 422.38 456.39 422.57 453.09 422.22 449.82 C 401.15 449.44 380.07 449.77 359.00 449.66 C 301.59 449.76 244.17 449.45 186.76 449.81 Z" />
<path fill="#323232" opacity="1.00" d=" M 205.27 585.23 C 206.33 586.27 207.34 587.66 209.05 587.47 C 273.48 587.49 337.91 587.01 402.34 587.46 C 401.37 588.21 400.27 588.53 399.04 588.41 C 340.36 588.36 281.68 588.41 223.00 588.39 C 217.02 588.09 210.88 589.18 205.04 587.59 C 205.09 587.00 205.21 585.82 205.27 585.23 Z" />
</g>
</svg>
