<svg width="100%" height="100%" viewBox="0 0 505 505" version="1.1" xmlns="http://www.w3.org/2000/svg">
<g id="#3f7aa7fe">
<path fill="#3f7aa7" opacity="1.00" d=" M 239.80 28.78 C 245.77 22.29 254.55 17.07 263.66 19.35 C 268.00 20.93 272.16 23.27 275.30 26.71 C 285.06 35.86 291.74 47.65 297.33 59.66 C 301.60 67.42 304.66 75.72 308.10 83.86 C 313.37 96.76 316.90 110.27 321.51 123.42 C 325.23 136.07 328.28 148.90 331.30 161.73 C 331.94 164.37 332.06 167.18 333.29 169.65 C 337.23 175.08 343.74 177.91 347.37 183.57 C 352.86 190.59 357.86 198.31 359.92 207.07 C 361.03 213.17 361.55 219.43 363.75 225.26 C 364.11 231.91 366.92 238.12 367.26 244.77 C 368.88 250.80 369.82 256.98 370.88 263.13 C 371.49 269.79 373.70 276.20 374.15 282.88 C 374.50 285.65 375.80 288.22 375.96 291.03 C 376.33 296.45 378.77 301.46 379.12 306.87 C 380.82 316.50 382.60 326.12 384.24 335.76 C 385.56 341.62 386.83 347.56 387.03 353.58 C 386.19 354.40 385.36 355.24 384.55 356.09 C 383.01 356.02 381.35 356.01 380.17 354.87 C 369.44 347.29 358.93 339.43 348.30 331.69 C 342.63 327.74 336.85 323.91 331.58 319.42 C 326.61 316.11 321.66 312.76 317.02 308.99 C 315.16 307.83 313.63 305.59 311.20 305.85 C 309.83 306.10 309.05 307.45 308.14 308.38 C 307.05 316.65 307.28 325.06 305.19 333.19 C 305.42 339.51 303.29 345.52 302.77 351.77 C 301.15 358.99 299.06 366.11 297.24 373.27 C 296.67 375.74 293.49 378.83 296.08 381.04 C 303.24 378.55 310.52 376.17 318.14 375.54 C 324.04 375.92 329.95 376.10 335.77 377.21 C 346.63 380.45 357.46 385.21 365.27 393.73 C 371.10 398.85 374.89 405.70 378.60 412.40 C 380.42 415.99 380.69 420.09 382.24 423.76 C 384.15 426.72 387.96 426.98 391.01 427.99 C 412.13 435.07 428.27 454.77 431.20 476.83 C 432.59 484.00 432.38 491.50 430.60 498.59 C 429.50 501.03 426.31 500.55 424.21 499.99 C 423.29 497.86 422.53 495.57 423.23 493.26 C 425.74 482.87 422.45 472.17 418.21 462.71 C 415.92 458.52 413.87 454.01 410.27 450.74 C 406.82 447.52 403.86 443.65 399.62 441.39 C 394.00 438.37 388.30 435.13 381.91 434.11 C 379.62 433.86 377.24 433.14 375.72 431.30 C 373.31 429.39 374.43 426.05 373.48 423.50 C 372.12 419.88 371.08 416.12 369.30 412.68 C 365.76 405.89 360.34 400.35 354.68 395.30 C 350.60 392.16 345.94 389.87 341.30 387.70 C 335.52 385.11 329.16 384.82 322.99 384.04 C 318.72 384.17 314.50 385.08 310.23 385.25 C 303.12 387.25 295.32 389.58 290.34 395.35 C 286.33 406.04 281.74 416.52 276.89 426.86 C 272.81 434.24 269.28 441.90 265.25 449.31 C 263.29 452.24 261.71 456.78 257.36 456.15 C 251.47 449.37 248.09 440.89 244.00 433.00 C 239.00 423.65 234.90 413.87 230.93 404.06 C 229.05 400.43 228.44 396.24 226.22 392.80 C 218.50 385.92 208.47 381.98 198.26 380.76 C 193.55 379.62 188.61 379.62 183.94 380.93 C 175.57 382.37 167.03 384.84 160.38 390.36 C 148.12 398.33 141.02 412.33 138.44 426.40 C 138.05 428.25 136.25 429.15 134.54 429.48 C 128.88 430.71 123.05 431.96 118.05 435.06 C 112.78 438.30 107.34 441.57 103.31 446.37 C 100.23 449.47 98.44 453.51 96.14 457.17 C 92.90 462.32 91.48 468.30 90.13 474.16 C 89.83 478.45 90.06 482.77 90.03 487.07 C 89.95 489.61 90.74 492.25 89.84 494.73 C 88.25 496.85 85.48 496.56 83.22 495.96 C 81.81 492.43 81.77 488.59 81.05 484.91 C 80.68 478.35 82.47 471.90 83.53 465.47 C 87.45 457.38 89.34 447.61 96.97 441.97 C 103.96 431.93 115.36 426.44 126.64 422.67 C 128.42 421.97 130.92 421.70 131.53 419.53 C 133.21 413.82 134.51 407.86 137.86 402.84 C 141.94 396.47 146.32 389.99 152.64 385.62 C 171.20 370.22 199.03 367.43 220.32 378.69 C 220.78 378.85 221.71 379.18 222.18 379.35 C 220.17 369.23 216.01 359.54 214.75 349.23 C 212.57 339.42 211.76 329.37 210.56 319.41 C 209.72 315.74 210.02 311.95 209.98 308.22 C 208.94 307.44 207.91 306.65 206.87 305.88 C 201.66 310.45 195.68 314.00 190.15 318.16 C 180.29 324.92 170.68 332.03 160.79 338.76 C 152.31 344.30 144.47 350.79 135.82 356.05 C 133.21 356.55 131.04 354.31 130.13 352.11 C 133.68 342.23 133.75 331.54 136.44 321.44 C 137.84 312.82 139.86 304.30 141.76 295.77 C 145.44 274.44 149.58 253.23 153.96 232.01 C 155.95 223.73 156.76 215.21 158.97 206.97 C 161.63 198.44 166.02 190.53 171.59 183.56 C 174.88 178.29 181.40 175.90 184.49 170.57 C 188.86 153.06 191.98 135.16 198.19 118.15 C 201.59 106.56 205.21 95.02 209.87 83.87 C 214.17 71.52 219.98 59.78 226.25 48.32 C 229.92 41.26 234.84 34.97 239.80 28.78 M 255.65 26.79 C 243.98 32.47 237.57 44.51 231.22 55.21 C 225.88 63.74 222.77 73.34 218.63 82.44 C 216.03 88.29 214.02 94.37 212.16 100.48 C 207.63 113.24 203.13 126.04 200.04 139.23 C 197.11 152.17 192.66 164.79 191.04 178.00 C 190.20 184.68 188.50 191.26 188.37 198.02 C 187.86 213.69 188.00 229.49 190.79 244.97 C 191.72 249.40 191.08 254.85 194.90 258.09 C 201.86 264.21 209.59 269.60 218.23 273.06 C 227.63 277.21 237.59 280.91 248.02 280.68 C 258.01 280.76 268.05 281.14 278.00 280.15 C 294.33 276.73 310.60 270.48 323.07 259.11 C 328.35 253.44 325.75 245.23 328.16 238.47 C 329.85 224.74 329.87 210.83 329.40 197.01 C 329.30 189.64 327.16 182.54 326.38 175.25 C 323.69 159.92 319.08 145.03 315.18 129.99 C 312.18 118.21 307.86 106.85 303.86 95.39 C 300.97 85.91 296.47 77.05 292.77 67.88 C 289.35 59.57 284.68 51.86 279.90 44.29 C 275.93 38.07 271.26 32.01 264.90 28.10 C 262.21 26.30 258.73 25.84 255.65 26.79 M 336.11 183.87 C 334.39 189.59 337.78 195.20 337.53 200.97 C 337.46 213.50 338.47 226.24 335.57 238.55 C 334.49 243.13 334.45 247.87 333.54 252.48 C 330.77 264.35 327.56 276.21 322.25 287.22 C 320.45 290.89 318.00 294.18 316.08 297.78 C 319.45 301.57 323.84 304.16 327.95 307.05 C 340.10 315.91 352.23 324.79 364.47 333.52 C 368.37 336.11 371.80 339.76 376.54 340.76 C 374.96 329.07 372.99 317.41 370.86 305.79 C 368.50 290.24 364.72 274.96 362.11 259.45 C 360.43 250.78 359.49 241.96 357.14 233.43 C 353.01 220.82 353.71 206.42 345.88 195.15 C 343.00 191.12 340.55 186.43 336.11 183.87 M 172.49 196.46 C 168.33 202.50 166.05 209.57 164.93 216.77 C 160.63 237.08 156.68 257.46 153.00 277.89 C 150.80 289.55 147.71 301.03 146.01 312.78 C 144.27 322.35 142.22 331.86 140.44 341.42 C 141.84 341.42 143.39 341.59 144.53 340.58 C 159.52 329.46 175.04 319.08 190.19 308.18 C 194.30 305.22 198.80 302.83 202.74 299.63 C 201.79 297.57 200.63 295.61 199.34 293.75 C 194.30 286.36 191.41 277.81 188.67 269.37 C 183.76 254.73 180.92 239.39 180.25 223.97 C 179.00 211.94 179.28 199.80 180.71 187.81 C 176.58 189.00 174.83 193.28 172.49 196.46 M 197.24 269.99 C 197.92 273.62 199.16 277.13 200.70 280.48 C 206.44 293.05 214.85 304.72 226.19 312.79 C 231.29 315.80 236.64 318.59 242.35 320.22 C 248.20 321.00 254.04 322.37 259.96 322.32 C 267.57 321.43 275.40 320.81 282.45 317.54 C 295.81 312.27 305.81 300.93 312.66 288.63 C 314.96 283.42 318.20 278.36 318.56 272.54 C 313.15 274.64 308.48 278.25 302.99 280.20 C 293.98 283.62 284.66 286.44 275.06 287.58 C 270.06 288.39 265.11 289.72 260.00 289.54 C 253.27 289.79 246.71 288.17 240.12 287.14 C 229.57 285.53 219.40 281.92 209.78 277.36 C 205.34 275.33 201.82 271.74 197.24 269.99 M 218.66 317.72 C 219.58 322.95 219.30 328.30 220.24 333.53 C 222.45 344.53 223.99 355.69 227.12 366.50 C 229.28 376.05 232.86 385.18 235.77 394.50 C 238.85 403.67 243.58 412.16 247.08 421.16 C 249.32 427.25 253.00 432.65 255.74 438.51 C 256.50 440.29 257.67 441.87 259.38 442.85 C 263.45 435.40 267.88 428.10 270.98 420.17 C 273.37 413.96 276.53 408.08 278.98 401.90 C 286.10 382.50 293.26 362.91 296.04 342.33 C 297.83 334.32 298.96 326.17 298.55 317.94 C 295.00 318.85 292.29 321.44 289.05 322.99 C 286.87 324.15 284.46 324.94 282.51 326.48 C 281.59 328.16 281.69 330.15 281.45 332.00 C 280.06 345.74 274.77 358.67 269.02 371.09 C 266.17 376.13 263.76 382.28 258.07 384.70 C 249.44 375.93 245.54 363.96 241.10 352.79 C 237.69 344.21 236.81 334.99 235.01 326.02 C 229.37 323.62 224.36 319.98 218.66 317.72 M 243.54 328.52 C 243.52 334.14 245.73 339.40 246.81 344.85 C 248.38 352.58 252.08 359.60 255.25 366.75 C 256.22 368.98 257.52 371.04 258.96 372.98 C 264.40 363.94 268.74 354.14 271.13 343.84 C 272.25 338.75 274.36 333.69 273.48 328.39 C 263.64 330.49 253.44 329.86 243.54 328.52 Z" />
<path fill="#3f7aa7" opacity="1.00" d=" M 253.44 66.45 C 258.59 64.33 264.72 65.59 269.01 69.01 C 276.03 74.85 281.72 82.29 285.21 90.76 C 291.45 103.25 293.72 117.24 295.29 130.98 C 295.57 140.31 295.77 149.65 295.62 158.99 C 295.67 167.21 290.41 174.29 284.42 179.41 C 272.20 189.15 254.13 191.15 240.31 183.68 C 231.89 179.68 225.04 172.02 222.60 162.97 C 221.64 153.35 222.48 143.65 222.47 134.00 C 223.24 115.20 228.04 96.28 238.25 80.31 C 242.17 74.67 246.72 68.80 253.44 66.45 M 262.61 74.95 C 262.59 110.16 262.33 145.38 262.73 180.58 C 268.22 179.38 273.56 177.29 278.13 173.96 C 283.53 170.31 286.96 164.26 288.39 158.00 C 288.93 148.46 288.84 138.81 286.71 129.45 C 286.38 119.08 283.42 109.08 280.39 99.24 C 278.94 94.58 276.21 90.49 273.64 86.39 C 270.76 81.93 267.49 77.38 262.61 74.95 M 244.58 85.52 C 234.10 100.59 232.45 119.39 229.60 136.97 C 229.27 143.32 229.37 149.68 229.37 156.04 C 229.24 159.49 230.68 162.72 232.35 165.65 C 237.06 173.27 245.09 178.96 254.15 179.76 C 254.97 176.24 255.51 172.64 255.43 169.01 C 255.47 145.01 255.41 121.00 255.46 97.00 C 255.62 89.93 254.32 82.92 254.58 75.84 C 249.96 77.37 247.35 81.84 244.58 85.52 Z" />
<path fill="#3f7aa7" opacity="1.00" d=" M 178.60 402.60 C 195.49 396.00 216.34 402.66 226.33 417.79 C 228.78 420.90 225.06 425.92 221.41 424.89 C 219.10 423.06 217.52 420.55 215.65 418.33 C 211.44 414.64 206.86 410.99 201.27 409.74 C 196.65 408.28 191.78 408.89 187.04 409.08 C 181.87 409.55 177.44 412.44 173.27 415.30 C 166.23 420.19 162.17 428.35 160.63 436.62 C 159.48 440.04 155.33 439.94 152.94 437.95 C 152.33 422.16 164.13 407.83 178.60 402.60 Z" />
<path fill="#3f7aa7" opacity="1.00" d=" M 316.83 400.77 C 324.39 398.97 332.30 400.80 339.42 403.47 C 345.67 405.64 350.28 410.62 354.74 415.27 C 359.92 420.83 362.65 428.41 363.11 435.91 C 363.48 438.39 360.74 439.12 359.08 440.16 C 357.33 438.81 355.11 437.47 354.99 435.00 C 352.40 423.13 343.26 412.79 331.45 409.57 C 322.10 407.59 311.68 408.86 304.07 415.03 C 300.00 417.41 297.83 421.70 294.62 424.95 C 291.41 425.54 287.79 422.66 288.70 419.22 C 294.66 409.22 305.37 402.41 316.83 400.77 Z" />
<path fill="#3f7aa7" opacity="1.00" d=" M 316.60 451.88 C 317.68 449.46 319.68 447.06 322.63 447.66 C 338.82 449.15 352.14 462.80 355.75 478.29 C 356.88 482.17 358.35 487.12 355.52 490.59 C 353.24 493.59 348.14 491.35 348.07 487.87 C 348.93 476.75 342.54 465.51 332.88 460.09 C 329.08 457.79 324.81 456.31 320.44 455.60 C 318.87 454.70 317.82 453.16 316.60 451.88 Z" />
<path fill="#3f7aa7" opacity="1.00" d=" M 123.89 461.85 C 130.52 455.21 139.17 450.11 148.67 449.36 C 149.85 449.81 150.94 450.46 152.03 451.10 C 152.02 452.65 152.01 454.21 152.03 455.78 C 151.23 456.42 150.41 457.03 149.57 457.61 C 144.65 458.98 139.41 460.01 135.38 463.37 C 131.78 466.42 128.21 469.72 125.81 473.84 C 123.30 478.45 122.02 483.68 121.95 488.92 C 122.05 491.27 120.62 494.14 117.93 494.04 C 115.92 494.45 114.44 492.88 112.98 491.80 C 112.04 480.79 116.97 470.15 123.89 461.85 Z" />
<path fill="#3f7aa7" opacity="1.00" d=" M 364.72 453.09 C 366.32 451.11 368.45 448.26 371.36 449.65 C 390.35 452.53 405.02 470.86 405.00 489.83 C 404.39 492.89 401.23 494.49 398.29 494.14 C 394.55 490.80 394.94 485.60 394.92 481.07 C 391.96 469.47 381.69 460.21 369.93 458.10 C 367.20 457.85 365.95 455.15 364.72 453.09 Z" />
<path fill="#3f7aa7" opacity="1.00" d=" M 203.41 452.28 C 206.44 450.97 210.07 454.24 209.21 457.40 C 208.88 459.36 206.98 460.88 205.04 461.05 C 197.34 462.63 189.38 466.22 185.21 473.22 C 180.64 478.68 179.24 485.86 178.83 492.78 C 178.56 495.12 175.95 495.95 174.19 496.98 C 172.28 495.86 169.58 494.64 169.97 491.97 C 169.85 481.23 175.12 471.05 182.23 463.25 C 188.33 458.07 195.47 453.83 203.41 452.28 Z" />
</g>
<g id="#fafcfeff">
<path fill="#fafcfe" opacity="1.00" d=" M 255.65 26.79 C 258.73 25.84 262.21 26.30 264.90 28.10 C 271.26 32.01 275.93 38.07 279.90 44.29 C 284.68 51.86 289.35 59.57 292.77 67.88 C 296.47 77.05 300.97 85.91 303.86 95.39 C 307.86 106.85 312.18 118.21 315.18 129.99 C 319.08 145.03 323.69 159.92 326.38 175.25 C 327.16 182.54 329.30 189.64 329.40 197.01 C 329.87 210.83 329.85 224.74 328.16 238.47 C 325.75 245.23 328.35 253.44 323.07 259.11 C 310.60 270.48 294.33 276.73 278.00 280.15 C 268.05 281.14 258.01 280.76 248.02 280.68 C 237.59 280.91 227.63 277.21 218.23 273.06 C 209.59 269.60 201.86 264.21 194.90 258.09 C 191.08 254.85 191.72 249.40 190.79 244.97 C 188.00 229.49 187.86 213.69 188.37 198.02 C 188.50 191.26 190.20 184.68 191.04 178.00 C 192.66 164.79 197.11 152.17 200.04 139.23 C 203.13 126.04 207.63 113.24 212.16 100.48 C 214.02 94.37 216.03 88.29 218.63 82.44 C 222.77 73.34 225.88 63.74 231.22 55.21 C 237.57 44.51 243.98 32.47 255.65 26.79 M 253.44 66.45 C 246.72 68.80 242.17 74.67 238.25 80.31 C 228.04 96.28 223.24 115.20 222.47 134.00 C 222.48 143.65 221.64 153.35 222.60 162.97 C 225.04 172.02 231.89 179.68 240.31 183.68 C 254.13 191.15 272.20 189.15 284.42 179.41 C 290.41 174.29 295.67 167.21 295.62 158.99 C 295.77 149.65 295.57 140.31 295.29 130.98 C 293.72 117.24 291.45 103.25 285.21 90.76 C 281.72 82.29 276.03 74.85 269.01 69.01 C 264.72 65.59 258.59 64.33 253.44 66.45 Z" />
<path fill="#fafcfe" opacity="1.00" d=" M 262.61 74.95 C 267.49 77.38 270.76 81.93 273.64 86.39 C 276.21 90.49 278.94 94.58 280.39 99.24 C 283.42 109.08 286.38 119.08 286.71 129.45 C 288.84 138.81 288.93 148.46 288.39 158.00 C 286.96 164.26 283.53 170.31 278.13 173.96 C 273.56 177.29 268.22 179.38 262.73 180.58 C 262.33 145.38 262.59 110.16 262.61 74.95 Z" />
<path fill="#fafcfe" opacity="1.00" d=" M 244.58 85.52 C 247.35 81.84 249.96 77.37 254.58 75.84 C 254.32 82.92 255.62 89.93 255.46 97.00 C 255.41 121.00 255.47 145.01 255.43 169.01 C 255.51 172.64 254.97 176.24 254.15 179.76 C 245.09 178.96 237.06 173.27 232.35 165.65 C 230.68 162.72 229.24 159.49 229.37 156.04 C 229.37 149.68 229.27 143.32 229.60 136.97 C 232.45 119.39 234.10 100.59 244.58 85.52 Z" />
</g>
<g id="#a0d9f3ff">
<path fill="#a0d9f3" opacity="1.00" d=" M 336.11 183.87 C 340.55 186.43 343.00 191.12 345.88 195.15 C 353.71 206.42 353.01 220.82 357.14 233.43 C 359.49 241.96 360.43 250.78 362.11 259.45 C 364.72 274.96 368.50 290.24 370.86 305.79 C 372.99 317.41 374.96 329.07 376.54 340.76 C 371.80 339.76 368.37 336.11 364.47 333.52 C 352.23 324.79 340.10 315.91 327.95 307.05 C 323.84 304.16 319.45 301.57 316.08 297.78 C 318.00 294.18 320.45 290.89 322.25 287.22 C 327.56 276.21 330.77 264.35 333.54 252.48 C 334.45 247.87 334.49 243.13 335.57 238.55 C 338.47 226.24 337.46 213.50 337.53 200.97 C 337.78 195.20 334.39 189.59 336.11 183.87 Z" />
<path fill="#a0d9f3" opacity="1.00" d=" M 172.49 196.46 C 174.83 193.28 176.58 189.00 180.71 187.81 C 179.28 199.80 179.00 211.94 180.25 223.97 C 180.92 239.39 183.76 254.73 188.67 269.37 C 191.41 277.81 194.30 286.36 199.34 293.75 C 200.63 295.61 201.79 297.57 202.74 299.63 C 198.80 302.83 194.30 305.22 190.19 308.18 C 175.04 319.08 159.52 329.46 144.53 340.58 C 143.39 341.59 141.84 341.42 140.44 341.42 C 142.22 331.86 144.27 322.35 146.01 312.78 C 147.71 301.03 150.80 289.55 153.00 277.89 C 156.68 257.46 160.63 237.08 164.93 216.77 C 166.05 209.57 168.33 202.50 172.49 196.46 Z" />
<path fill="#a0d9f3" opacity="1.00" d=" M 197.24 269.99 C 201.82 271.74 205.34 275.33 209.78 277.36 C 219.40 281.92 229.57 285.53 240.12 287.14 C 246.71 288.17 253.27 289.79 260.00 289.54 C 265.11 289.72 270.06 288.39 275.06 287.58 C 284.66 286.44 293.98 283.62 302.99 280.20 C 308.48 278.25 313.15 274.64 318.56 272.54 C 318.20 278.36 314.96 283.42 312.66 288.63 C 305.81 300.93 295.81 312.27 282.45 317.54 C 275.40 320.81 267.57 321.43 259.96 322.32 C 254.04 322.37 248.20 321.00 242.35 320.22 C 236.64 318.59 231.29 315.80 226.19 312.79 C 214.85 304.72 206.44 293.05 200.70 280.48 C 199.16 277.13 197.92 273.62 197.24 269.99 Z" />
</g>
<g id="#f9b426ff">
<path fill="#f9b426" opacity="1.00" d=" M 218.66 317.72 C 224.36 319.98 229.37 323.62 235.01 326.02 C 236.81 334.99 237.69 344.21 241.10 352.79 C 245.54 363.96 249.44 375.93 258.07 384.70 C 263.76 382.28 266.17 376.13 269.02 371.09 C 274.77 358.67 280.06 345.74 281.45 332.00 C 281.69 330.15 281.59 328.16 282.51 326.48 C 284.46 324.94 286.87 324.15 289.05 322.99 C 292.29 321.44 295.00 318.85 298.55 317.94 C 298.96 326.17 297.83 334.32 296.04 342.33 C 293.26 362.91 286.10 382.50 278.98 401.90 C 276.53 408.08 273.37 413.96 270.98 420.17 C 267.88 428.10 263.45 435.40 259.38 442.85 C 257.67 441.87 256.50 440.29 255.74 438.51 C 253.00 432.65 249.32 427.25 247.08 421.16 C 243.58 412.16 238.85 403.67 235.77 394.50 C 232.86 385.18 229.28 376.05 227.12 366.50 C 223.99 355.69 222.45 344.53 220.24 333.53 C 219.30 328.30 219.58 322.95 218.66 317.72 Z" />
<path fill="#f9b426" opacity="1.00" d=" M 243.54 328.52 C 253.44 329.86 263.64 330.49 273.48 328.39 C 274.36 333.69 272.25 338.75 271.13 343.84 C 268.74 354.14 264.40 363.94 258.96 372.98 C 257.52 371.04 256.22 368.98 255.25 366.75 C 252.08 359.60 248.38 352.58 246.81 344.85 C 245.73 339.40 243.52 334.14 243.54 328.52 Z" />
</g>
</svg>
