
<!-- <?xml version="1.0" encoding="UTF-8" ?>
<!DOCTYPE svg PUBLIC "-//W3C//DTD SVG 1.1//EN" "http://www.w3.org/Graphics/SVG/1.1/DTD/svg11.dtd"> -->
                <svg width="100%" height="100%" viewBox="0 0 1094 150" version="1.1" xmlns="http://www.w3.org/2000/svg">
                <clipPath id="000000ff">
                    <path fill="#000000" opacity="1.00" d=" M 742.25 0.00 L 833.00 0.00 C 832.97 5.36 833.04 10.72 833.00 16.07 C 833.05 18.52 831.71 20.66 830.83 22.86 C 813.17 63.89 795.60 104.97 777.91 146.00 C 768.14 145.99 758.36 146.02 748.59 145.99 C 767.03 105.15 785.55 64.36 804.00 23.53 C 783.42 23.47 762.84 23.52 742.26 23.50 C 742.23 15.67 742.25 7.83 742.25 0.00 Z" />
                    <path fill="#000000" opacity="1.00" d=" M 870.83 0.00 L 894.75 0.00 C 894.75 48.66 894.75 97.33 894.75 145.99 C 885.50 146.01 876.25 146.00 867.01 146.00 C 866.98 105.79 867.02 65.58 866.99 25.37 C 858.48 29.75 850.03 34.26 841.53 38.66 C 839.45 31.82 837.39 24.98 835.34 18.13 C 847.16 12.08 858.99 6.02 870.83 0.00 Z" />
                    <path fill="#000000" opacity="1.00" d=" M 957.83 0.00 L 981.75 0.00 C 981.75 48.66 981.75 97.32 981.75 145.99 C 972.50 146.01 963.25 146.00 954.00 146.00 C 953.98 105.79 954.02 65.58 953.99 25.37 C 945.48 29.75 937.03 34.26 928.54 38.66 C 926.45 31.82 924.38 24.98 922.34 18.12 C 934.17 12.08 945.99 6.02 957.83 0.00 Z" />
                    <path fill="#000000" opacity="1.00" d=" M 1003.25 0.00 L 1094.00 0.00 L 1094.00 17.79 C 1075.63 60.52 1057.31 103.28 1038.92 146.00 C 1029.14 145.99 1019.36 146.02 1009.59 145.99 C 1028.03 105.15 1046.55 64.36 1064.99 23.53 C 1044.41 23.47 1023.84 23.52 1003.26 23.50 C 1003.23 15.67 1003.25 7.83 1003.25 0.00 Z" />
                    <path fill="#000000" opacity="1.00" d=" M 36.46 8.67 C 45.03 7.43 54.00 7.74 62.20 10.72 C 71.62 14.18 79.57 22.02 82.27 31.80 C 84.67 40.72 84.44 50.76 79.87 58.97 C 76.64 64.98 71.22 69.49 65.28 72.67 C 71.84 74.65 77.93 78.60 81.76 84.36 C 87.83 93.19 88.76 104.53 87.27 114.87 C 85.82 124.85 80.13 134.18 71.64 139.71 C 61.57 146.51 48.84 147.79 37.02 146.63 C 26.72 145.68 16.35 141.39 9.69 133.25 C 3.06 125.46 0.57 114.99 0.62 104.95 C 5.04 104.93 9.47 104.93 13.89 104.95 C 13.90 113.70 16.12 123.07 22.64 129.32 C 28.68 135.38 37.66 137.34 45.96 136.90 C 54.00 136.66 62.40 133.98 67.82 127.76 C 74.40 120.49 75.67 109.93 74.36 100.55 C 73.45 93.91 69.86 87.49 63.96 84.09 C 55.31 78.99 44.87 78.80 35.13 79.21 C 35.11 76.07 35.11 72.94 35.13 69.80 C 44.79 70.34 55.45 69.58 63.27 63.24 C 69.54 58.24 71.81 49.80 71.42 42.06 C 71.30 34.75 67.99 27.38 61.97 23.07 C 55.04 17.90 45.78 17.19 37.53 18.81 C 31.33 20.06 25.50 23.61 22.07 29.00 C 18.35 34.59 17.15 41.40 16.89 48.00 C 12.85 48.00 8.80 48.01 4.76 47.99 C 5.17 38.83 7.32 29.40 12.95 21.98 C 18.45 14.44 27.37 10.01 36.46 8.67 Z" />
                    <path fill="#000000" opacity="1.00" d=" M 100.06 8.01 C 115.69 7.99 131.32 8.00 146.96 8.00 C 158.49 8.16 170.58 8.57 180.99 14.15 C 193.12 20.77 201.11 33.11 205.19 46.04 C 210.08 61.79 210.42 78.67 208.34 94.93 C 206.16 110.95 199.49 127.35 186.17 137.25 C 176.55 144.86 163.82 146.12 152.01 146.75 C 134.70 147.32 117.38 146.97 100.07 147.05 C 100.05 100.70 100.06 54.36 100.06 8.01 M 112.76 19.07 C 112.75 58.04 112.75 97.02 112.76 135.99 C 125.53 135.95 138.30 136.17 151.06 135.76 C 159.16 135.22 167.67 134.83 174.97 130.92 C 185.05 125.02 190.92 114.03 193.59 102.98 C 196.21 92.22 196.62 81.03 196.09 70.01 C 195.46 59.47 193.66 48.74 188.74 39.29 C 184.53 31.20 177.44 24.30 168.60 21.59 C 160.99 19.21 152.91 19.28 145.02 19.08 C 134.27 19.05 123.51 19.06 112.76 19.07 Z" />
                    <path fill="#000000" opacity="1.00" d=" M 252.69 8.01 C 285.73 8.00 318.78 7.99 351.82 8.01 C 351.81 11.69 351.82 15.38 351.81 19.06 C 337.38 19.07 322.94 19.06 308.51 19.07 C 308.51 61.70 308.47 104.33 308.53 146.96 C 304.30 147.16 300.06 147.04 295.82 147.05 C 295.80 104.39 295.82 61.73 295.81 19.07 C 281.44 19.05 267.07 19.08 252.70 19.05 C 252.68 15.37 252.68 11.69 252.69 8.01 Z" />
                    <path fill="#000000" opacity="1.00" d=" M 367.84 54.81 C 377.59 45.83 391.81 43.61 404.53 45.67 C 414.07 47.22 422.94 52.60 428.50 60.53 C 436.48 71.62 438.08 85.77 437.89 99.05 C 413.45 99.08 389.01 99.05 364.57 99.07 C 364.67 108.06 366.08 117.35 370.73 125.19 C 374.52 131.64 380.59 136.98 387.94 138.88 C 397.49 141.34 408.53 139.70 415.95 132.88 C 420.91 128.60 423.73 122.38 424.84 116.01 C 428.68 115.99 432.52 115.99 436.37 116.02 C 435.25 125.11 431.04 133.91 423.96 139.85 C 417.25 146.04 408.29 149.17 399.31 150.00 L 391.67 150.00 C 381.03 149.25 370.49 144.61 363.79 136.14 C 354.00 124.19 351.90 107.97 352.55 93.02 C 353.13 79.13 357.21 64.40 367.84 54.81 M 374.12 64.07 C 367.54 70.95 364.43 80.57 364.57 89.99 C 384.96 89.99 405.35 90.03 425.74 89.97 C 425.73 80.27 422.59 70.32 415.78 63.24 C 405.00 51.80 384.54 52.47 374.12 64.07 Z" />
                    <path fill="#000000" opacity="1.00" d=" M 455.91 54.87 C 465.59 46.07 479.48 44.28 492.04 45.19 C 501.41 45.86 511.56 48.72 517.47 56.54 C 522.62 63.16 523.14 71.92 522.88 79.98 C 522.89 96.65 522.84 113.32 522.91 129.99 C 523.14 132.32 522.72 135.50 525.09 136.90 C 527.92 138.40 531.28 137.84 534.37 138.04 C 534.38 141.04 534.38 144.05 534.36 147.05 C 528.49 148.08 521.76 149.10 516.53 145.50 C 512.46 142.66 511.61 137.36 511.67 132.75 C 502.87 141.94 491.18 148.77 478.35 150.00 L 471.45 150.00 C 464.26 149.44 456.92 147.45 451.29 142.77 C 438.16 132.52 437.95 109.53 451.41 99.49 C 462.03 92.04 475.38 90.86 487.94 90.01 C 494.14 89.42 500.82 89.54 506.40 86.37 C 509.67 84.52 511.19 80.66 511.12 77.03 C 511.17 70.97 510.06 64.07 505.11 59.98 C 499.47 55.51 491.87 55.01 484.97 55.06 C 477.56 55.26 469.45 56.58 463.92 61.95 C 459.85 65.86 458.37 71.58 458.00 77.05 C 454.16 77.07 450.32 77.07 446.48 77.05 C 446.54 68.79 449.58 60.37 455.91 54.87 M 479.13 99.70 C 472.02 100.42 464.51 102.10 459.17 107.17 C 452.30 113.27 451.50 124.72 456.96 131.98 C 460.68 136.92 466.86 139.37 472.88 139.81 C 480.64 140.34 488.71 139.24 495.64 135.53 C 502.50 131.90 507.99 125.50 509.94 117.92 C 511.94 110.34 510.84 102.40 511.11 94.65 C 500.76 97.95 489.79 98.07 479.13 99.70 Z" />
                    <path fill="#000000" opacity="1.00" d=" M 569.10 46.78 C 578.62 44.06 589.78 43.85 598.21 49.74 C 603.25 53.07 606.35 58.51 608.20 64.14 C 612.74 55.19 621.07 48.12 631.00 46.07 C 641.04 43.99 652.58 44.43 661.03 50.89 C 668.53 56.82 670.89 66.92 671.04 76.05 C 671.09 99.72 671.06 123.39 671.05 147.05 C 667.19 147.06 663.34 147.10 659.49 147.01 C 659.49 123.69 659.52 100.38 659.48 77.06 C 659.26 70.84 658.41 63.85 653.71 59.29 C 648.95 54.89 641.95 54.65 635.87 55.33 C 626.99 56.19 618.32 61.17 614.18 69.25 C 610.46 75.87 610.51 83.67 610.63 91.04 C 610.62 109.71 610.63 128.38 610.62 147.05 C 606.77 147.07 602.91 147.07 599.07 147.06 C 599.04 124.39 599.07 101.72 599.05 79.06 C 598.96 73.22 598.16 67.07 594.82 62.13 C 592.21 58.22 587.80 55.65 583.13 55.21 C 574.02 54.37 564.16 57.02 557.83 63.91 C 552.50 69.50 550.16 77.33 550.16 84.93 C 550.08 105.63 550.16 126.34 550.11 147.05 C 546.26 147.07 542.42 147.07 538.57 147.05 C 538.55 113.70 538.56 80.35 538.57 47.00 C 542.16 47.00 545.77 46.99 549.37 47.01 C 549.37 52.46 549.40 57.92 549.34 63.38 C 553.62 55.69 560.46 49.14 569.10 46.78 Z" />
                </clipPath>
     <image clip-path="url(#000000ff)" height="100%" width="100%" xlink:href="../imges/LogoGradient.png" />
     </svg>
